<svg width="15" height="16" fill="none" xmlns="http://www.w3.org/2000/svg"><path d="M7.2 9.6a.772.772 0 01-.57-.23.772.772 0 01-.23-.57c0-.227.077-.417.23-.57A.773.773 0 017.2 8c.227 0 .417.077.57.23.153.153.23.343.23.57a.773.773 0 01-.23.57.775.775 0 01-.57.23zM4 9.6a.775.775 0 01-.57-.23.773.773 0 01-.23-.57c0-.227.077-.417.23-.57A.776.776 0 014 8c.227 0 .417.077.57.23.153.153.23.343.23.57a.773.773 0 01-.23.57.775.775 0 01-.57.23zm6.4 0a.772.772 0 01-.57-.23.772.772 0 01-.23-.57c0-.227.077-.417.23-.57A.773.773 0 0110.4 8c.227 0 .416.077.57.23.153.153.23.343.23.57a.772.772 0 01-.23.57.772.772 0 01-.57.23zm-3.2 3.2a.772.772 0 01-.57-.23.772.772 0 01-.23-.57c0-.227.077-.416.23-.57a.772.772 0 01.57-.23c.227 0 .417.077.57.23.153.154.23.343.23.57a.773.773 0 01-.23.57.775.775 0 01-.57.23zm-3.2 0a.775.775 0 01-.57-.23.773.773 0 01-.23-.57c0-.227.077-.416.23-.57A.775.775 0 014 11.2c.227 0 .417.077.57.23.153.154.23.343.23.57a.773.773 0 01-.23.57.775.775 0 01-.57.23zm6.4 0a.772.772 0 01-.57-.23.772.772 0 01-.23-.57c0-.227.077-.416.23-.57a.772.772 0 01.57-.23c.227 0 .416.077.57.23.153.154.23.343.23.57a.772.772 0 01-.23.57.772.772 0 01-.57.23zM1.6 16c-.44 0-.817-.156-1.13-.47A1.543 1.543 0 010 14.4V3.2c0-.44.157-.817.47-1.13.313-.313.69-.47 1.13-.47h.8V0H4v1.6h6.4V0H12v1.6h.8c.44 0 .817.157 1.13.47.313.313.47.69.47 1.13v11.2c0 .44-.157.817-.47 1.13-.313.314-.69.47-1.13.47H1.6zm0-1.6h11.2v-8H1.6v8z" fill="#AAA"/></svg>