<svg width="81" height="100" fill="none" xmlns="http://www.w3.org/2000/svg"><path fill-rule="evenodd" clip-rule="evenodd" d="M80.432 1H1v79.679c0 6.243 5.061 11.304 11.305 11.304h18.533c6.953 0 9.462 5.098 9.847 7.646.88-5.809 6.124-7.517 8.636-7.646h19.806c6.243 0 11.305-5.061 11.305-11.305V1z" fill="#0AAA54"/><path d="M1 1V.853H.853V1H1zm79.432 0h.146V.853h-.146V1zM12.305 91.983v-.147.147zm18.533 0v.147-.147zm9.847 7.646l-.145.022h.29l-.145-.022zm8.636-7.646v-.147h-.008l.008.147zm19.806 0v-.147.147zM1 1.147h79.432V.853H1v.294zm.147 79.532V1H.853v79.679h.294zm11.158 11.157c-6.163 0-11.158-4.995-11.158-11.157H.853c0 6.324 5.127 11.451 11.452 11.451v-.293zm18.533 0H12.305v.294h18.533v-.293zm0 .294c3.437 0 5.764 1.258 7.281 2.823 1.521 1.569 2.232 3.45 2.42 4.698l.29-.043c-.196-1.302-.931-3.243-2.5-4.86-1.57-1.62-3.974-2.912-7.49-2.912v.294zm9.992 7.521c.433-2.858 1.937-4.704 3.643-5.853 1.71-1.153 3.622-1.605 4.855-1.668l-.015-.293c-1.278.065-3.244.531-5.004 1.717-1.765 1.19-3.322 3.103-3.77 6.053l.29.044zm28.297-7.814H49.32v.293h19.806v-.293zm11.158-11.159c0 6.163-4.996 11.159-11.158 11.159v.293c6.324 0 11.451-5.127 11.451-11.451h-.293zm0-79.678v79.678h.293V1h-.293z" fill="#000"/><path d="M9.691 6.06h15.843v1.21h-2.64l-2.256.386-.66.33-.495.44-.11 1.045.275 1.21.55 1.046.66 1.265.385 1.155 1.65 4.676 1.1 4.95.495 5.226v3.85h1.54l-.384 3.356-.715 2.035-.936 1.816-.99 1.375-1.265 1.375-1.32 1.045-1.43.935 1.32-2.915.88-3.053.55-2.778.055-3.19h1.595l-.44-5.336-.99-5.61-.605-2.806-.88-2.86-1.21-2.366-1.706-.605-1.43.715-1.265 2.255-.88 2.586-.495 2.42-.825 4.62-.33 2.971-.22 1.32-.11 1.43-.11.99v.276h1.595v2.53l.33 2.475.55 2.2.715 2.146 1.32 2.585-1.76-1.045-1.595-1.375-1.54-1.87-1.1-2.035-.826-2.53-.495-3.081h1.705v-2.696l.33-3.685.33-3.796.99-4.29 1.376-3.906 1.43-3.19.55-1.596-.165-1.21-.77-.55-1.76-.55-3.41-.11V6.06z" fill="#D6D6D6"/><path d="M20.803 43.521c2.376-2.86 3.447-10.03 3.685-13.257l.11 2.476h1.43c.045 5.764-3.41 9.59-5.225 10.781z" fill="#ADADAD"/><path d="M13.448 32.85c-.404 5.459 2.86 11.936 2.86 11.881-3.221-2.755-4.403-7.314-4.592-11.8-.174-4.133.286-8.002 1.55-10.643 0 0-.495 2.718-.718 4.494l-.57 4.55-.125 1.518h1.595z" fill="#A9ADAE"/><path d="M9.636 7.27V6.007h15.788V7.27c-1.76-.037-5.38.132-5.776 1.1-.495 1.21.055 2.31.935 4.016.88 1.705 3.905 9.791 4.07 17.767.026 1.21-.055 2.2 0 2.64h1.376c.146 2.696-1.078 8.89-7.151 12.102-.275 0 2.97-4.785 2.915-12.101h1.485c-.366-6.565-2.013-19.638-5.666-19.418-2.255.165-4.29 4.73-5.665 19.418h1.54c-.092 2.273.396 7.877 3.08 12.101.11 0-6.876-2.31-7.48-12.101h1.594c.074-4.97.98-16.008 4.016-20.408.44-1.046 1.54-2.916.77-4.016-.77-.55-1.87-1.1-5.83-1.1zm1.1 22.94h1.486m10.836 0h1.54" stroke="#000" stroke-width=".294"/><path d="M54.743 6.116h15.842v1.21h-2.64l-2.256.385-.66.33-.495.44-.11 1.045.275 1.21.55 1.046.66 1.265.385 1.155 1.65 4.676 1.1 4.95.496 5.226v3.85h1.54l-.385 3.356-.715 2.035-.935 1.816-.99 1.375-1.265 1.375-1.32 1.045-1.43.935 1.32-2.915.88-3.053.55-2.778.055-3.19h1.595L68 27.569l-.99-5.61-.606-2.806-.88-2.86-1.21-2.366-1.705-.605-1.43.715-1.265 2.255-.88 2.586-.496 2.42-.825 4.62-.33 2.971-.22 1.32-.11 1.43-.11.99v.276h1.595v2.53l.33 2.475.55 2.2.716 2.146 1.32 2.585-1.76-1.045-1.596-1.375-1.54-1.87-1.1-2.035-.825-2.53-.495-3.081h1.705v-2.696l.33-3.685.33-3.796.99-4.29 1.375-3.906 1.43-3.19.55-1.596-.164-1.21-.77-.55-1.76-.55-3.411-.11v-1.21z" fill="#D6D6D6"/><path d="M65.854 43.576c2.377-2.86 3.448-10.03 3.686-13.257l.11 2.476h1.43c.044 5.764-3.41 9.59-5.226 10.781z" fill="#ADADAD"/><path d="M58.5 32.905c-.404 5.459 2.86 11.936 2.86 11.881-3.221-2.755-4.403-7.314-4.593-11.8-.174-4.133.286-8.002 1.551-10.643 0 0-.496 2.718-.718 4.494l-.57 4.55-.125 1.518H58.5z" fill="#A9ADAE"/><path d="M54.688 7.326V6.06h15.787v1.265c-1.76-.037-5.38.132-5.776 1.1-.495 1.21.055 2.31.935 4.016.88 1.705 3.906 9.791 4.071 17.767.025 1.21-.055 2.2 0 2.64h1.375c.147 2.696-1.078 8.89-7.15 12.102-.276 0 2.97-4.785 2.915-12.101h1.485c-.367-6.565-2.013-19.638-5.666-19.418-2.255.165-4.29 4.73-5.666 19.418h1.54c-.091 2.273.396 7.877 3.08 12.101.11 0-6.875-2.31-7.48-12.101h1.595c.073-4.97.98-16.008 4.016-20.408.44-1.046 1.54-2.916.77-4.016-.77-.55-1.87-1.1-5.831-1.1zm1.1 22.938h1.485m10.837 0h1.54" stroke="#000" stroke-width=".294"/><path d="M31.86 50.342h15.842v1.21h-2.64l-2.256.386-.66.33-.495.44-.11 1.045.275 1.21.55 1.045.66 1.265.385 1.155 1.65 4.676 1.1 4.95.496 5.227v3.85h1.54l-.385 3.356-.715 2.035-.935 1.815-.99 1.375-1.266 1.376-1.32 1.045-1.43.935 1.32-2.916.88-3.052.55-2.778.055-3.19h1.596l-.44-5.337-.99-5.61-.606-2.806-.88-2.86-1.21-2.366-1.705-.605-1.43.715-1.266 2.256-.88 2.585-.495 2.42-.825 4.621-.33 2.97-.22 1.32-.11 1.43-.11.991v.275h1.595v2.53l.33 2.476.55 2.2.715 2.145 1.32 2.586-1.76-1.045-1.595-1.376-1.54-1.87-1.1-2.035-.826-2.53-.495-3.08h1.706v-2.696l.33-3.686.33-3.795.99-4.291 1.375-3.906 1.43-3.19.55-1.595-.165-1.21-.77-.55-1.76-.55-3.41-.11v-1.21z" fill="#D6D6D6"/><path d="M42.971 87.803c2.377-2.86 3.447-10.03 3.686-13.257l.11 2.475h1.43c.044 5.765-3.41 9.59-5.226 10.782z" fill="#ADADAD"/><path d="M35.617 77.131c-.405 5.46 2.86 11.937 2.86 11.882-3.222-2.756-4.404-7.314-4.593-11.8-.174-4.134.286-8.003 1.551-10.643 0 0-.496 2.717-.718 4.494l-.57 4.55-.126 1.517h1.596z" fill="#A9ADAE"/><path d="M31.805 51.552v-1.265h15.787v1.265c-1.76-.036-5.38.132-5.776 1.1-.495 1.21.055 2.31.935 4.016.88 1.705 3.906 9.792 4.07 17.768.026 1.21-.054 2.2 0 2.64h1.376c.147 2.696-1.078 8.89-7.151 12.102-.275 0 2.97-4.786 2.915-12.102h1.486c-.367-6.564-2.014-19.638-5.666-19.418-2.256.165-4.291 4.731-5.666 19.418h1.54c-.092 2.274.396 7.877 3.08 12.102.11 0-6.875-2.31-7.48-12.102h1.595c.073-4.969.979-16.007 4.015-20.408.44-1.045 1.54-2.915.77-4.015-.77-.55-1.87-1.1-5.83-1.1zm1.1 22.938h1.485m10.837 0h1.54" stroke="#000" stroke-width=".294"/></svg>