<svg width="32" height="43" fill="none" xmlns="http://www.w3.org/2000/svg"><g clip-path="url(#clip0_11_67)"><path d="M22.846 0H.734C.118 0-.381.503-.381 1.479v40.753c0 .265.5.768 1.115.768h30.532c.616 0 1.115-.503 1.115-.768V9.965c0-.534-.07-.706-.196-.833L23.32.197A.67.67 0 0022.846 0z" fill="#E9E9E0"/><path d="M23.238.116v9.098h9.028L23.238.116z" fill="#D9D7CA"/><path d="M9.534 25.588c-.265 0-.52-.087-.736-.25-.793-.6-.9-1.267-.85-1.722.139-1.25 1.673-2.558 4.56-3.891 1.146-2.531 2.236-5.65 2.886-8.255-.76-1.668-1.5-3.831-.96-5.1.189-.445.424-.786.864-.934.173-.058.612-.132.774-.132.384 0 .721.499.96.806.225.289.735.9-.284 5.223 1.027 2.137 2.482 4.315 3.877 5.806.999-.182 1.858-.275 2.558-.275 1.193 0 1.916.28 2.211.858.244.478.144 1.036-.297 1.659-.424.598-1.01.914-1.691.914-.927 0-2.006-.59-3.209-1.754a36.299 36.299 0 00-6.726 2.167c-.637 1.362-1.247 2.459-1.815 3.264-.781 1.102-1.455 1.616-2.122 1.616zm2.029-3.936c-1.629.922-2.292 1.68-2.34 2.107-.008.07-.028.256.328.531.114-.036.777-.34 2.012-2.638zm10.39-3.41c.62.48.772.724 1.178.724.179 0 .687-.008.922-.339.114-.16.158-.263.176-.318-.094-.05-.218-.152-.896-.152-.384.001-.868.018-1.38.084zm-5.692-5.055a55.014 55.014 0 01-2.037 5.808 37.859 37.859 0 014.95-1.55c-1.03-1.205-2.057-2.708-2.913-4.258zM15.8 6.69c-.075.025-1.013 1.349.073 2.469.723-1.624-.04-2.48-.073-2.47zM31.266 43H.734a1.119 1.119 0 01-1.115-1.123v-11.93h32.762v11.93c0 .62-.5 1.123-1.115 1.123z" fill="#CC4B4C"/><path d="M7.912 40.696h-1.25V32.96H8.87c.326 0 .65.052.968.157.32.105.606.263.86.472.254.21.459.464.615.761.156.297.234.631.234 1.003 0 .392-.066.747-.198 1.066a2.229 2.229 0 01-.552.803 2.485 2.485 0 01-.854.504 3.264 3.264 0 01-1.104.178h-.927v2.792zm0-6.781v3.065h1.146c.153 0 .304-.026.454-.08a1.14 1.14 0 00.411-.256 1.26 1.26 0 00.302-.499 2.377 2.377 0 00.062-1.228 1.261 1.261 0 00-.213-.472 1.265 1.265 0 00-.453-.377c-.195-.102-.452-.152-.771-.152l-.938-.001zm11.303 2.698c0 .636-.068 1.18-.204 1.632-.136.452-.307.83-.516 1.135a2.658 2.658 0 01-.703.719c-.26.175-.512.306-.755.394a3.097 3.097 0 01-.667.168c-.2.023-.35.035-.448.035h-2.906V32.96h2.313c.646 0 1.213.103 1.703.309a3.53 3.53 0 011.219.824c.323.342.563.733.723 1.17.16.438.24.888.24 1.35zm-3.709 3.16c.848 0 1.459-.273 1.833-.819.375-.546.563-1.337.563-2.373 0-.321-.038-.64-.115-.955a2.049 2.049 0 00-.442-.855c-.219-.256-.516-.462-.89-.62-.376-.157-.862-.236-1.46-.236h-.728v5.858h1.24zm6.792-5.858v2.435h3.208v.861h-3.208v3.485h-1.271V32.96h4.802v.955h-3.531z" fill="#fff"/></g><defs><clipPath id="clip0_11_67"><path fill="#fff" d="M0 0h32v43H0z"/></clipPath></defs></svg>